
<svg width="16px" height="18px" viewBox="0 0 16 18" version="1.1" xmlns="http://www.w3.org/2000/svg" xmlns:xlink="http://www.w3.org/1999/xlink">
    <!-- Generator: Sketch 51.3 (57544) - http://www.bohemiancoding.com/sketch -->
    <desc>Created with Sketch.</desc>
    <defs></defs>
    <g id="Page-1" stroke="none" stroke-width="1" fill="none" fill-rule="evenodd">
        <g id="Artboard" transform="translate(-1146.000000, -366.000000)" fill="#FFFFFF" fill-rule="nonzero">
            <g id="Group" transform="translate(1126.000000, 355.000000)">
                <g id="253298" transform="translate(20.000000, 10.200000)">
                    <path d="M14.9814018,5.7111875 C14.975729,5.63792188 14.9123107,5.58125 14.8363832,5.58125 L12.2181945,5.58125 L12.2181945,4.878125 C12.2181945,2.62939063 10.3258259,0.8 8.00000164,0.8 C5.67417736,0.8 3.78180876,2.62939063 3.78180876,4.878125 L3.78180876,5.58125 L1.16362008,5.58125 C1.08769261,5.58125 1.02427426,5.63792188 1.01860152,5.7111875 L0.00041702832,18.6486875 C-0.00263752514,18.6876406 0.0111806929,18.7261719 0.038817129,18.7548594 C0.0663081102,18.7836875 0.104999121,18.8 0.14543559,18.8 L15.8545677,18.8 C15.8950042,18.8 15.9336952,18.7836875 15.9611862,18.755 C15.9886771,18.7263125 16.0026408,18.6877813 15.9995863,18.6488281 L14.9814018,5.7111875 Z M4.94544818,4.878125 C4.94544818,3.24982813 6.31563359,1.925 8.00000164,1.925 C9.68436969,1.925 11.0545551,3.24982813 11.0545551,4.878125 L11.0545551,5.58125 L4.94544818,5.58125 L4.94544818,4.878125 Z M4.36362847,9.51875 C3.56144455,9.51875 2.9090792,8.88790625 2.9090792,8.1125 C2.9090792,7.55126563 3.19998905,7.04557813 3.78180876,6.82367188 L3.78180876,8.1125 C3.78180876,8.42271875 4.04290036,8.675 4.36362847,8.675 C4.68435658,8.675 4.94544818,8.42271875 4.94544818,8.1125 L4.94544818,6.82451563 C5.52726788,7.04642188 5.81817774,7.55590625 5.81817774,8.1125 C5.81817774,8.88790625 5.16581239,9.51875 4.36362847,9.51875 Z M11.6363748,9.51875 C10.8341909,9.51875 10.1818255,8.88790625 10.1818255,8.1125 C10.1818255,7.55126563 10.4727354,7.04557813 11.0545551,6.82367188 L11.0545551,8.1125 C11.0545551,8.42271875 11.3156467,8.675 11.6363748,8.675 C11.9571029,8.675 12.2181945,8.42271875 12.2181945,8.1125 L12.2181945,6.82451563 C12.8000142,7.04642188 13.0909241,7.55590625 13.0909241,8.1125 C13.0909241,8.88790625 12.4385587,9.51875 11.6363748,9.51875 Z" id="Shape"></path>
                </g>
            </g>
        </g>
    </g>
</svg>
