
<svg width="100px" height="92px" viewBox="0 0 100 92" version="1.1" xmlns="http://www.w3.org/2000/svg" xmlns:xlink="http://www.w3.org/1999/xlink">
    <defs>
        <linearGradient x1="73.3674399%" y1="80.7217586%" x2="-26.2392945%" y2="-6.56840965%" id="linearGradient-1">
            <stop stop-color="#E39266" offset="0%"></stop>
            <stop stop-color="#C46E41" offset="100%"></stop>
        </linearGradient>
    </defs>
    <g id="Page-1" stroke="none" stroke-width="1" fill="none" fill-rule="evenodd">
        <g id="home" transform="translate(-670.000000, -3384.000000)" fill="url(#linearGradient-1)" fill-rule="nonzero">
            <g id="1189206" transform="translate(670.000000, 3384.000000)">
                <path d="M99.4064533,64.8697659 L94.509137,59.9905878 C93.7220432,59.2064126 92.4516181,59.211854 91.6711453,60.0022769 C90.8904719,60.7926997 90.8958891,62.069025 91.6827822,62.8529986 L96.5798979,67.7321768 C96.9711374,68.1221482 97.4821565,68.3168317 97.992975,68.3168317 C98.5092106,68.3168317 99.0254462,68.117916 99.4176889,67.7204877 C100.198563,66.9300649 100.193346,65.6537396 99.4064533,64.8697659 Z" id="Shape"></path>
                <path d="M89.519537,55.0352691 C88.7466756,54.262171 87.4939911,54.262171 86.720734,55.0352691 L86.7173703,55.0386339 C85.9445089,55.811732 85.9462897,57.0636126 86.7191511,57.8367107 C87.1049882,58.2228639 87.6113252,58.4158416 88.1174643,58.4158416 C88.6247906,58.4158416 89.1325127,58.2220722 89.5193391,57.8351273 C90.2922005,57.0620292 90.2922005,55.8085652 89.519537,55.0352691 Z" id="Shape"></path>
                <path d="M72.9979784,64.5421395 L91.9111181,45.5387767 C94.7755344,42.6604705 94.7755344,37.9771513 91.9109231,35.098845 C90.9008241,34.0839169 89.6671466,33.4285813 88.3677795,33.1295085 C88.8133771,32.16707 89.0492358,31.1108162 89.0492358,30.0177414 C89.0492358,28.0458588 88.2849366,26.1920776 86.8974636,24.7979714 C85.8091998,23.7043091 84.4390751,22.9980507 82.9519957,22.7436332 C83.7891967,20.1806559 83.1974057,17.2453554 81.1727244,15.2111904 C80.0595103,14.0928501 78.6749612,13.4112697 77.2299854,13.1621403 C77.4720817,12.4239574 77.5997573,11.6444488 77.5997573,10.8445711 C77.5997573,8.87268844 76.8354581,7.01890724 75.4479852,5.6248011 C74.0603173,4.23069496 72.2153564,3.46274186 70.2530509,3.46274186 C69.0068982,3.46274186 67.808697,3.77337017 66.744214,4.35663065 L66.5561118,4.15352752 C64.111368,1.51377442 60.6508724,0 57.0625063,0 L41.7531318,0 C40.6765635,0 39.8034965,0.877240994 39.8034965,1.95895611 L39.8034965,4.52780918 C39.8034965,5.55585963 39.9765895,6.55668604 40.3075714,7.49777623 C39.4257327,7.12976198 38.471577,6.93645167 37.4879877,6.93645167 C35.5254873,6.93645167 33.6805264,7.70440478 32.2928585,9.09851091 C30.2672025,11.133851 29.6759963,14.0713059 30.5151465,16.6350667 C29.0690013,16.8836085 27.6825029,17.5655807 26.5683142,18.6849002 C25.1808412,20.0792022 24.416542,21.9329834 24.416542,23.9046702 C24.416542,24.702981 24.5438277,25.4813145 24.7849494,26.2179306 C23.2996243,26.4731316 21.9308641,27.1789982 20.8435749,28.2716812 C18.6064258,30.5195256 18.1165804,33.8686707 19.3740387,36.5987136 C18.0425091,36.9044455 16.8195524,37.5781917 15.8297256,38.5725548 C12.9653092,41.4506652 12.9653092,46.1339844 15.8297256,49.0122907 L19.7192501,52.9202142 L0.571031481,72.159584 C-0.190343827,72.9245993 -0.190343827,74.1649581 0.571031481,74.9301692 C0.951719135,75.312481 1.45072599,75.5040286 1.94953793,75.5040286 C2.44834986,75.5040286 2.94735672,75.3126768 3.32804437,74.9301692 L22.6610515,55.5047358 C23.7555529,56.1322598 24.9976121,56.4679577 26.2921061,56.4679577 C28.2544116,56.4679577 30.0993725,55.7000046 31.4870404,54.3057027 C32.9945869,52.7911448 33.7076209,50.7763696 33.6282866,48.788035 C33.7271133,48.792148 33.8259401,48.7950859 33.9247668,48.7950859 C35.8057888,48.79489 37.6877853,48.0753134 39.1197011,46.636552 C40.5071741,45.24225 41.2714733,43.3884688 41.2714733,41.4167821 C41.2714733,41.3170911 41.2681596,41.2179878 41.2642611,41.1188844 C41.3619183,41.1228015 41.4595755,41.1259352 41.5574276,41.1259352 C43.4386445,41.1259352 45.3202512,40.4063587 46.7523619,38.9674014 C48.1398349,37.5730994 48.904134,35.7193182 48.904134,33.7476314 C48.904134,33.6479405 48.9008203,33.5488372 48.8969218,33.4497338 C48.994579,33.4536509 49.0922362,33.4567846 49.1900883,33.4567846 C51.0715001,33.4567846 52.9529119,32.7372081 54.3850226,31.2982508 C57.0765409,28.5938651 57.2385232,24.2961872 54.872334,21.3992746 L67.8141549,8.39558215 C68.4653978,7.74102993 69.3308628,7.38084994 70.2518813,7.38084994 C71.1728998,7.38084994 72.0385598,7.74102993 72.6898027,8.39558215 C73.3410457,9.04993852 73.6995119,9.91954111 73.6995119,10.8449628 C73.6995119,11.7701886 73.3410457,12.6401829 72.6896078,13.2943434 L70.7814913,15.2115821 L63.858161,22.1680111 C63.0967857,22.9330264 63.0967857,24.1733852 63.858161,24.9385963 C64.2388487,25.3209081 64.7378555,25.5124557 65.2366675,25.5124557 C65.7354794,25.5124557 66.2344863,25.321104 66.6151739,24.9385963 L73.5385042,17.9821673 C74.882509,16.6315413 77.0697575,16.6313454 78.4141521,17.9819715 C79.7583518,19.3327933 79.7583518,21.5303026 78.4141521,22.8811244 L76.5058407,24.798559 L71.4908218,29.8375535 C70.7294465,30.6025687 70.7294465,31.8429276 71.4908218,32.6081387 C71.8715094,32.9904504 72.3705163,33.181998 72.8693282,33.181998 C73.3681402,33.181998 73.867147,32.9906463 74.2478347,32.6081387 L79.2628536,27.5691442 C79.9140965,26.914592 80.7797565,26.554412 81.7005801,26.554412 C82.6215986,26.554412 83.4872585,26.914592 84.1385015,27.5691442 C84.7897444,28.2235006 85.1482107,29.0931031 85.1482107,30.0185248 C85.1482107,30.9437506 84.7897444,31.813745 84.1383066,32.4679055 L81.5191053,35.0996284 L79.1232876,37.5068999 C78.3619123,38.2719152 78.3619123,39.512274 79.1232876,40.2774851 C79.5039753,40.6597969 80.0029821,40.8513445 80.5017941,40.8513445 C81.000606,40.8513445 81.4996129,40.6599928 81.8803005,40.2774851 L84.2778725,37.8684509 C85.6222672,36.5199793 87.8081511,36.5201752 89.1517661,37.8702136 C90.4961607,39.2208397 90.4961607,41.4185448 89.1517661,42.7693666 L70.2386265,61.7727294 C65.4894846,66.5447716 59.1776326,69.3073267 52.4657955,69.5521472 C51.9724414,69.570166 51.5038428,69.7756194 51.1553177,70.1273776 L33.6838401,87.7474063 C32.9238292,88.5137926 32.9259734,89.7541514 33.6889081,90.5177957 C34.0692059,90.8985406 34.5670432,91.0891089 35.0648805,91.0891089 C35.564862,91.0891089 36.0652334,90.8969737 36.445921,90.5127034 L49.2967121,77.5528828 C52.5609187,79.6569685 56.3997628,80.6574032 60.303127,80.3980893 L70.3608442,90.5040857 C70.7415318,90.8863975 71.2405387,91.0779451 71.7393506,91.0779451 C72.2383575,91.0779451 72.7371694,90.8865934 73.117857,90.5040857 C73.8792324,89.7390705 73.8792324,88.4987116 73.117857,87.7335005 L62.424296,76.9876411 C62.0194377,76.5810431 61.4568855,76.3732394 60.8863413,76.420245 L60.2682355,76.4711677 C57.4151248,76.7061954 54.5949564,76.0782796 52.1326694,74.6918119 L53.3856444,73.428342 C60.7958963,72.9690587 67.733651,69.8318302 72.9979784,64.5421395 Z M28.7300275,51.5355092 C28.0787845,52.1900614 27.2129297,52.5502414 26.292301,52.5502414 C25.3712825,52.5502414 24.5056225,52.1900614 23.8545745,51.5355092 L18.5865435,46.2424889 C17.2423438,44.8918629 17.2423438,42.6941578 18.5865435,41.3433359 C19.2377865,40.6887837 20.1036413,40.3286037 21.0244649,40.3286037 C21.9452885,40.3286037 22.8111434,40.6887837 23.4621914,41.3433359 L28.7302224,46.6363562 C30.0742272,47.9869822 30.0742272,50.1846873 28.7300275,51.5355092 Z M36.3630781,43.8659668 C35.0186834,45.2165928 32.8310452,45.2165928 31.4872353,43.8659668 L26.2192043,38.5727507 L23.5998081,35.9408319 C22.2556084,34.5902058 22.2556084,32.3925007 23.5998081,31.0418747 C24.2510511,30.3873225 25.1169059,30.0271425 26.0375346,30.0271425 C26.9585531,30.0271425 27.8242131,30.3873225 28.4752611,31.0418747 L36.3624933,38.9668139 C36.3624933,38.9668139 36.3624933,38.9668139 36.3626882,38.9668139 C37.0141261,39.6213661 37.3725923,40.4911645 37.3725923,41.4163903 C37.3725923,42.3416162 37.0141261,43.2116105 36.3630781,43.8659668 Z M43.9957388,36.1966204 C42.6513442,37.5470505 40.4639008,37.5472464 39.119896,36.1966204 L29.3243524,26.3542467 C28.6731095,25.6998903 28.3146432,24.8302877 28.3146432,23.9048661 C28.3146432,22.9796402 28.6731095,22.1096459 29.3245474,21.4554854 C29.9966472,20.7801724 30.8796554,20.4425159 31.7622738,20.4425159 C32.6445024,20.4425159 33.526536,20.7797807 34.1984409,21.4539186 L38.6629929,25.9398145 L43.995349,31.2976632 L43.9955439,31.2976632 C44.6465919,31.9520196 45.0050582,32.8216222 45.0050582,33.7470439 C45.005448,34.6724656 44.6469818,35.5424599 43.9957388,36.1966204 Z M51.6285945,28.5272739 C50.2843948,29.8778999 48.0971464,29.8778999 46.7529467,28.5272739 L36.957403,18.6849002 C36.9564284,18.6839209 36.9552589,18.6829417 36.9540893,18.6817665 L35.0490917,16.7676615 C33.7048919,15.4168397 33.7048919,13.2193304 35.0490917,11.8685085 C35.7211915,11.1929997 36.6041998,10.8553432 37.4870131,10.8553432 C38.3698264,10.8553432 39.2528346,11.1929997 39.9247395,11.8685085 L51.6282047,23.627925 C52.2796425,24.2822814 52.6381088,25.1520799 52.6381088,26.0773057 C52.6383037,27.0029232 52.2800324,27.8731134 51.6285945,28.5272739 Z M52.1412461,18.6028364 L46.7862788,13.2222683 C47.3934687,13.3525128 48.0178121,13.4216501 48.6532661,13.4214543 C48.6674956,13.4214543 48.68192,13.4214543 48.6963445,13.4214543 L54.0466336,13.3961888 C55.1232019,13.3910965 55.9921756,12.5099384 55.9871075,11.4280274 C55.9820395,10.3492501 55.110142,9.47827655 54.0376671,9.47827655 C54.0345483,9.47827655 54.0314295,9.47827655 54.0283107,9.47827655 L48.6780215,9.50354203 C48.6698347,9.50354203 48.6620377,9.50354203 48.6538509,9.50354203 C47.3355761,9.50354203 46.0956611,8.98941888 45.1608029,8.05459609 C44.220097,7.11370175 43.7021825,5.86139568 43.7021825,4.52761332 L43.7021825,3.91771637 L57.0619215,3.91771637 C59.5715752,3.91771637 61.9915635,4.97632042 63.7014417,6.82246323 L63.780776,6.90805249 L52.1412461,18.6028364 Z" id="Shape"></path>
            </g>
        </g>
    </g>
</svg>