
<svg width="100px" height="97px" viewBox="0 0 100 97" version="1.1" xmlns="http://www.w3.org/2000/svg" xmlns:xlink="http://www.w3.org/1999/xlink">
    <defs>
        <linearGradient x1="-1177.1875%" y1="799.375%" x2="-26.2392945%" y2="-6.56840965%" id="linearGradient-1">
            <stop stop-color="#E39266" offset="0%"></stop>
            <stop stop-color="#C46E41" offset="100%"></stop>
        </linearGradient>
    </defs>
    <g id="Page-1" stroke="none" stroke-width="1" fill="none" fill-rule="evenodd">
        <g id="home" transform="translate(-1068.000000, -3378.000000)" fill="url(#linearGradient-1)" fill-rule="nonzero">
            <g id="751433" transform="translate(1068.000000, 3378.000000)">
                <path d="M99.3681537,14.4235702 C98.5278465,13.5829479 97.1618087,13.5829479 96.3215015,14.4235702 C95.4790397,15.2663479 95.4790397,16.6307426 96.3215015,17.471365 C97.1618087,18.3141427 98.5278465,18.3141427 99.3681537,17.471365 C100.210615,16.6307426 100.210615,15.2663479 99.3681537,14.4235702 Z" id="Shape"></path>
                <path d="M94.1970603,3.21667364 C93.3544195,2.37605132 91.9902465,2.37605132 91.1476057,3.21667364 C90.3071199,4.0594514 90.3071199,5.42384608 91.1476057,6.2644684 C91.9902465,7.10724616 93.3544195,7.10724616 94.1970603,6.2644684 C95.0377615,5.42384608 95.0377615,4.0594514 94.1970603,3.21667364 Z" id="Shape"></path>
                <path d="M80.4039568,0.630466739 C79.561316,-0.21015558 78.197143,-0.21015558 77.3545022,0.630466739 C76.5140165,1.4732445 76.5140165,2.83763919 77.3545022,3.67826151 C78.197143,4.52103927 79.561316,4.52103927 80.4039568,3.67826151 C81.2446581,2.83763919 81.2446581,1.4732445 80.4039568,0.630466739 Z" id="Shape"></path>
                <path d="M12.3007846,85.9750775 C11.4580805,85.1347443 10.0938052,85.1347443 9.25110123,85.9750775 C8.41055246,86.8177815 8.41055246,88.1820568 9.25110123,89.0247608 C10.0938052,89.8653096 11.4580805,89.8653096 12.3007846,89.0247608 C13.1411178,88.1820568 13.1411178,86.8177815 12.3007846,85.9750775 Z" id="Shape"></path>
                <path d="M27.8438461,69.5251283 C27.0514405,68.7658881 25.7823487,68.7810493 25.009187,69.5593886 L14.3629281,80.2765675 C13.5897664,81.0547099 13.605402,82.3012736 14.3976072,83.0609076 C14.7874956,83.4344238 15.2926466,83.6206897 15.7973967,83.6206897 C16.3187848,83.6206897 16.8395715,83.4222161 17.2322663,83.0266472 L27.8785251,72.3094683 C28.6516869,71.5313259 28.6358508,70.2847623 27.8438461,69.5251283 Z" id="Shape"></path>
                <path d="M90.8095353,44.1627592 L83.9454769,37.3180001 C83.9351629,37.3075208 83.9248489,37.2972355 83.9143403,37.2869502 L75.6872782,29.082787 C75.6777426,29.073084 75.6682071,29.0635749 75.6584769,29.0540659 L67.4319986,20.8504849 C67.4226576,20.8409759 67.413122,20.8314669 67.4035865,20.8221519 L59.1747729,12.6162422 C59.1656266,12.6069272 59.1562856,12.5976122 59.14675,12.5882973 L52.2801617,5.74082125 C51.91528,5.37695509 51.4202084,5.17241379 50.9041196,5.17241379 C50.3880309,5.17241379 49.8929593,5.37695509 49.5280775,5.74082125 L27.5127661,27.6942738 L24.758152,30.4394742 C20.9657169,34.2236823 20.9659115,40.3795215 24.7585412,44.1615949 L30.2640719,49.6516075 C30.6314835,50.0181906 30.8338712,50.505092 30.8338712,51.0232374 C30.8338712,51.5413828 30.6314835,52.0286724 30.2640719,52.3950614 L27.5491569,55.1022256 L3.97487598,76.156395 C3.97390296,76.1571713 3.97312454,76.1581416 3.97215153,76.1589178 C3.77248823,76.334932 3.58956083,76.5055125 3.41441759,76.6799742 C-1.1381392,81.2198595 -1.1381392,88.6068278 3.41441759,93.1467131 C5.6163574,95.34233 8.54844995,96.5517241 11.6706702,96.5517241 C14.7926959,96.5517241 17.724983,95.3425241 19.9265336,93.1471012 C20.104596,92.9697286 20.2799338,92.7828469 20.4626666,92.5759769 C20.4630558,92.5755888 20.463445,92.5750066 20.4638342,92.5744244 C20.4648072,92.5734541 20.4657802,92.5724838 20.4665587,92.5715135 L41.3185298,68.8163898 L44.0246875,66.1175702 C44.7832524,65.3611167 46.0174285,65.3613108 46.7761879,66.1177643 L52.2809402,71.6050601 C54.118582,73.4389455 56.5620249,74.4488439 59.1607615,74.4488439 C61.759498,74.4488439 64.2029409,73.4389455 66.0398044,71.6060304 L68.7940292,68.8616062 L90.8093407,46.9073775 C91.5692678,46.1495655 91.5692678,44.9207652 90.8095353,44.1627592 Z M17.5383582,90.0149413 C17.4120604,90.1575768 17.2933522,90.2842993 17.1750332,90.4020949 C15.7081113,91.8649339 13.7535126,92.670291 11.6708648,92.670291 C9.58821702,92.670291 7.63361839,91.8649339 6.16689101,90.4020949 C3.13185315,87.3755047 3.13185315,82.4509886 6.1665018,79.4249805 C6.28735064,79.3046621 6.41598362,79.1847318 6.55979569,79.0582034 C6.56174173,79.0564569 6.56349316,79.0545163 6.56543919,79.0527697 C6.56757983,79.0508291 6.56972047,79.0494706 6.57186111,79.04753 L28.8150534,59.1823782 L37.2338,67.5776923 L17.5383582,90.0149413 Z M63.2879148,68.8618003 C62.1854853,69.9619375 60.719731,70.5677989 59.1609561,70.5677989 C57.6021812,70.5677989 56.1366214,69.9619375 55.0334136,68.861024 L49.5282721,63.3731461 C47.2523829,61.1035915 43.5488817,61.1037856 41.2727979,63.3731461 L39.897145,64.74497 L31.6406978,56.5115035 L33.0161561,55.1398736 C34.1187801,54.0401245 34.7259434,52.5782558 34.7259434,51.0234315 C34.7259434,49.4686071 34.1185855,48.0067384 33.0161561,46.9071834 L27.51082,41.4171707 C25.2351254,39.1480043 25.2353201,35.454035 27.5102362,33.1840924 L28.8878352,31.8112981 L64.6653191,67.4892001 L63.2879148,68.8618003 Z M67.4181817,64.7451641 L31.6405032,29.067068 L50.9037304,9.85745747 L55.0326352,13.9748699 L45.4003404,23.5788019 C44.6402187,24.3364198 44.6402187,25.5652201 45.4001458,26.3232261 C45.7802067,26.7022291 46.2781973,26.8918276 46.7763825,26.8918276 C47.2743732,26.8918276 47.7723638,26.7022291 48.15223,26.3234201 L57.784914,16.7192941 L63.2898608,22.2089186 L53.6573715,31.8128506 C52.8972498,32.5704685 52.8972498,33.7992688 53.6571769,34.5572747 C54.0372377,34.9362777 54.5352283,35.1258763 55.0334136,35.1258763 C55.5314042,35.1258763 56.0293948,34.9362777 56.4092611,34.5574688 L66.041945,24.9533427 L71.5449458,30.4410267 L61.9126511,40.0449587 C61.1525294,40.8025765 61.1525294,42.0313768 61.9124565,42.7893828 C62.2925173,43.1683858 62.790508,43.3579843 63.2886932,43.3579843 C63.7866838,43.3579843 64.2846745,43.1683858 64.6645407,42.7895769 L74.29703,33.1854508 L79.8019769,38.6750753 L70.1696821,48.2790073 C69.4095604,49.0366252 69.4095604,50.2654255 70.1694875,51.0234315 C70.5495484,51.4024345 71.047539,51.592033 71.5457242,51.592033 C72.0437149,51.592033 72.5417055,51.4024345 72.9215717,51.0236255 L82.5542557,41.4194995 L86.6816036,45.5353594 L67.4181817,64.7451641 Z" id="Shape"></path>
                <path d="M74.4247651,5.74750736 C73.6577852,4.98071594 72.414119,4.98071594 71.6469427,5.74750736 L66.0924763,11.3020313 C65.3254964,12.0690191 65.3254964,13.3126982 66.0924763,14.0798824 C66.4762609,14.4632781 66.9788733,14.6551724 67.4814857,14.6551724 C67.9840981,14.6551724 68.486907,14.4632781 68.8702987,14.0798824 L74.4247651,8.52535854 C75.191745,7.75837071 75.191745,6.5146916 74.4247651,5.74750736 Z" id="Shape"></path>
                <path d="M64.0634702,0.59141005 C63.2746349,-0.197035675 61.9955298,-0.197237685 61.2066945,0.59141005 L58.3503229,3.44783397 C57.5614876,4.23668371 57.5612856,5.51581216 58.3503229,6.30486391 C58.7448416,6.69938979 59.2617762,6.89655172 59.7787107,6.89655172 C60.2956453,6.89655172 60.8127819,6.69918778 61.2070986,6.30486391 L64.0634702,3.44844 C64.8523055,2.65959025 64.8525075,1.3804618 64.0634702,0.59141005 Z" id="Shape"></path>
                <path d="M88.2325504,9.1810964 C87.4851464,8.43388741 86.2732225,8.43388741 85.5256271,9.1810964 L74.6983166,20.0083539 C73.9511039,20.7557543 73.9511039,21.9678635 74.698508,22.7152639 C75.0723057,23.0888684 75.5620898,23.2758621 76.051874,23.2758621 C76.5416581,23.2758621 77.0316336,23.0888684 77.4052399,22.7152639 L88.2325504,11.8880065 C88.9799545,11.1406061 88.9799545,9.9286882 88.2325504,9.1810964 Z" id="Shape"></path>
                <path d="M93.399496,19.5320494 C92.6445755,18.776641 91.420657,18.7768343 90.6655431,19.5316628 L82.4629113,27.7334617 C81.7077974,28.4884835 81.7077974,29.7125662 82.4627179,30.4679747 C82.8402749,30.8455823 83.3349846,31.0344828 83.8298877,31.0344828 C84.3245975,31.0344828 84.8193072,30.8455823 85.1966708,30.4683614 L93.3993027,22.2665625 C94.1542232,21.5115407 94.1542232,20.2874579 93.399496,19.5320494 Z" id="Shape"></path>
                <path d="M96.8221536,33.3501 C96.033301,32.5614609 94.7541679,32.5614609 93.9653152,33.3501 L91.1088809,36.2064925 C90.3200282,36.9953336 90.3200282,38.274448 91.1088809,39.0634911 C91.5034082,39.4578106 92.0203541,39.6551724 92.5373001,39.6551724 C93.054246,39.6551724 93.5713939,39.4578106 93.9657193,39.0634911 L96.8221536,36.2070986 C97.6110063,35.4182575 97.6110063,34.1391431 96.8221536,33.3501 Z" id="Shape"></path>
            </g>
        </g>
    </g>
</svg>