
<svg width="16px" height="16px" viewBox="0 0 16 16" version="1.1" xmlns="http://www.w3.org/2000/svg" xmlns:xlink="http://www.w3.org/1999/xlink">
    <g id="Page-1" stroke="none" stroke-width="1" fill="none" fill-rule="evenodd" opacity="0.603004092">
        <g id="home" transform="translate(-234.000000, -302.000000)" fill="#FFFFFF">
            <g id="126341" transform="translate(234.000000, 302.000000)">
                <path d="M11.8732203,10.7139509 C11.362996,10.2102399 10.7260281,10.2102399 10.2190536,10.7139509 C9.83232313,11.0974212 9.44559261,11.4808915 9.06536177,11.8708613 C8.96136701,11.978103 8.87362143,12.0008512 8.74687782,11.9293567 C8.49664043,11.7928673 8.23015385,11.6823759 7.98966597,11.5328875 C6.86847246,10.8276921 5.92926978,9.92101235 5.0973117,8.90059141 C4.6845825,8.39363069 4.317351,7.85092274 4.06061394,7.23997007 C4.00861656,7.11647964 4.01836606,7.03523594 4.11911099,6.93449374 C4.5058415,6.5607727 4.88282251,6.17730241 5.26305335,5.79383212 C5.79277666,5.26087342 5.79277666,4.63692176 5.25980351,4.1007133 C4.95756874,3.79523697 4.65533397,3.49626014 4.3530992,3.19078381 C4.04111492,2.87880798 3.73238047,2.5635824 3.41714636,2.25485632 C2.90692206,1.75764485 2.26995416,1.75764485 1.7629797,2.25810607 C1.37299935,2.64157636 0.999268182,3.03479589 0.602788159,3.41176668 C0.235556662,3.75948974 0.0503159949,4.18520676 0.0113179599,4.68241823 C-0.050428929,5.49160554 0.147811083,6.25529637 0.427297001,6.99948871 C0.999268182,8.53986936 1.8702243,9.90801335 2.92642108,11.1624162 C4.3530992,12.8587847 6.0560134,14.2009307 8.04816302,15.1693557 C8.94511783,15.604822 9.874571,15.939546 10.8852701,15.9947917 C11.580735,16.0337887 12.1852046,15.8583023 12.6694302,15.3155944 C13.0009135,14.9451231 13.3746446,14.6071493 13.725627,14.2529267 C14.2456008,13.7264675 14.2488506,13.0895168 13.7321266,12.5695571 C13.1146577,11.9488552 12.493939,11.3314031 11.8732203,10.7139509 Z" id="Path"></path>
                <path d="M11.0402008,7.52941176 L12.2352941,7.32092331 C12.0474475,6.19905684 11.5292498,5.18308927 10.7422372,4.37561016 C9.90988219,3.52510962 8.85729323,2.98899644 7.697826,2.82352941 L7.52941176,4.05129478 C8.42654144,4.18035906 9.24270272,4.59402664 9.88721104,5.25258542 C10.4960933,5.87474146 10.8944577,6.66236452 11.0402008,7.52941176 Z" id="Path"></path>
                <path d="M13.5746302,2.52712785 C12.2257953,1.14337918 10.5191708,0.269603614 8.63523475,0 L8.47058824,1.20509567 C10.0980557,1.43896868 11.5735418,2.19580775 12.7387325,3.38791047 C13.8437639,4.52154494 14.5688418,5.95401715 14.831643,7.52941176 L16,7.32477288 C15.6928709,5.49926407 14.853807,3.84266355 13.5746302,2.52712785 Z" id="Path"></path>
            </g>
        </g>
    </g>
</svg>