
<svg width="100px" height="100px" viewBox="0 0 100 100" version="1.1" xmlns="http://www.w3.org/2000/svg" xmlns:xlink="http://www.w3.org/1999/xlink">
    <defs>
        <linearGradient x1="73.3674399%" y1="80.7217586%" x2="-26.2392945%" y2="-6.56840965%" id="linearGradient-1">
            <stop stop-color="#E39266" offset="0%"></stop>
            <stop stop-color="#C46E41" offset="100%"></stop>
        </linearGradient>
    </defs>
    <g id="Page-1" stroke="none" stroke-width="1" fill="none" fill-rule="evenodd">
        <g id="home" transform="translate(-272.000000, -3384.000000)" fill="url(#linearGradient-1)" fill-rule="nonzero">
            <g id="686317" transform="translate(272.000000, 3384.000000)">
                <path d="M96.8718544,49.5740188 C93.5283004,46.8312937 88.243536,46.5960752 84.7749821,50.3010577 L76.1642419,59.5012102 C75.0509609,55.9400803 71.7093601,53.3470397 67.7702985,53.3470397 L52.4040911,53.3470397 C51.2380757,53.3470397 50.8476461,52.9038181 48.822256,51.350793 C41.0999921,44.6503714 29.5011666,44.6717549 21.8023402,51.4149435 L16.1542947,56.3638623 C13.615428,55.0264218 10.6507803,54.9933746 8.09804649,56.2627767 L1.61992297,59.4856585 C0.172657673,60.2068656 -0.413084381,61.958174 0.309376392,63.3986441 L17.8865208,98.3876829 C18.61113,99.828153 20.3706999,100.411145 21.8179652,99.6920762 L28.2960888,96.4672504 C31.4892521,94.8792342 33.2664001,91.6367184 33.1511658,88.3362728 L67.7701032,88.3362728 C74.189633,88.3362728 80.3240066,85.284459 84.1753729,80.172248 L98.2390416,61.5075654 C100.967361,57.8898665 100.535721,52.5850096 96.8718544,49.5740188 Z M25.6749956,91.2518155 L21.8177699,93.1722479 L6.85976552,63.3986441 L10.7189443,61.4782117 C12.1662096,60.7589486 13.9238264,61.3401909 14.6484356,62.782605 L26.9855422,87.3409682 C27.7081983,88.781244 27.1222609,90.5306084 25.6749956,91.2518155 Z M93.5517379,58.0084477 L79.4882646,76.6731303 C76.7365074,80.325626 72.3558443,82.5046044 67.7702985,82.5046044 L31.1064397,82.5046044 L20.1285125,60.6500871 L25.6730425,55.7925342 C31.1902287,50.9620022 39.5101487,50.9620022 45.0273349,55.7925342 C48.2771389,58.6402328 50.2984275,59.1787081 52.4038958,59.1787081 L67.7701032,59.1787081 C69.3853372,59.1787081 70.6995947,60.4869894 70.6995947,62.0944452 C70.6995947,63.701901 69.3851419,65.0101822 67.7701032,65.0101822 L52.8081925,65.0101822 C51.1910054,65.0101822 49.878701,66.3165195 49.878701,67.9259192 C49.878701,69.535319 51.1912007,70.8416563 52.8081925,70.8416563 L69.7329934,70.8416563 C72.1644381,70.8416563 74.5081876,69.8269121 76.1642419,68.0561642 L89.0618952,54.2762498 C90.2415824,53.0165675 92.0499805,53.121541 93.1593552,54.0876863 C94.3193159,55.0983481 94.4445112,56.8265235 93.5517379,58.0084477 Z" id="Shape"></path>
                <path d="M61.6263029,20.0198425 C63.6328997,17.9134892 64.8698028,15.0658341 64.8698028,11.9304601 C64.8698028,5.47233281 59.6568327,0 53.1463845,0 C46.6847871,0 41.2275628,5.4625531 41.2275628,11.9304601 C41.2275628,14.9697974 42.4175691,17.8389678 44.5785346,20.0433137 C39.219012,23.051356 35.3658537,28.8249038 35.3658537,35.5959817 L35.3658537,38.5296982 C35.3658537,40.149022 36.678964,41.4634146 38.2967082,41.4634146 L67.8008527,41.4634146 C69.4185969,41.4634146 70.7317073,40.149022 70.7317073,38.5296982 L70.7317073,35.5959817 C70.7315119,28.9579078 67.0839179,23.0943867 61.6263029,20.0198425 Z M53.1463845,5.86762856 C56.3234472,5.86762856 59.0080936,8.64486973 59.0080936,11.9306557 C59.0080936,15.1655871 56.3781602,17.7980886 53.1463845,17.7980886 C49.8638039,17.7980886 47.089272,15.1108208 47.089272,11.9306557 C47.089272,8.70159203 49.9204708,5.86762856 53.1463845,5.86762856 Z M41.2275628,35.5959817 C41.2275628,29.1280747 46.6847871,23.6655216 53.1463845,23.6655216 C59.6099359,23.6655216 64.8698028,29.016586 64.8698028,35.5959817 L41.2275628,35.5959817 Z" id="Shape"></path>
            </g>
        </g>
    </g>
</svg>