
<svg width="21px" height="15px" viewBox="0 0 21 15" version="1.1" xmlns="http://www.w3.org/2000/svg" xmlns:xlink="http://www.w3.org/1999/xlink">
    <g id="Page-1" stroke="none" stroke-width="1" fill="none" fill-rule="evenodd">
        <g id="Home_grid_option_2" transform="translate(-249.000000, -1553.000000)" fill="#FFFFFF" fill-rule="nonzero">
            <g id="66831" transform="translate(249.000000, 1553.000000)">
                <path d="M20.7139799,6.78331322 L14.4647355,0.296817969 C14.0834535,-0.0989393229 13.4650907,-0.0989393229 13.0838087,0.296817969 C12.7024486,0.692656341 12.7024486,1.33433288 13.0838087,1.73017126 L17.6661453,6.48647498 L0.97644444,6.48647498 C0.437212763,6.48647498 0,6.94028641 0,7.49998986 C0,8.05961224 0.437212763,8.51350475 0.97644444,8.51350475 L17.6661453,8.51350475 L13.0839649,13.2698085 C12.7026048,13.6656468 12.7026048,14.3073234 13.0839649,14.7031618 C13.2745669,14.9009188 13.5245367,15 13.7744283,15 C14.02432,15 14.2742116,14.9009188 14.4648917,14.7031618 L20.7139799,8.21666651 C21.09534,7.82082814 21.09534,7.17915159 20.7139799,6.78331322 Z" id="Shape"></path>
            </g>
        </g>
    </g>
</svg>